# Blender v2.78 (sub 0) OBJ File: ''
# www.blender.org
o Cylinder053.001
v -0.092461 -0.000789 -0.141531
v -0.181186 -0.000789 -0.035345
v -0.202887 0.145995 -0.042137
v -0.103003 0.145995 -0.161679
v -0.168839 -0.000789 0.102478
v -0.188988 0.145995 0.113020
v -0.062653 -0.000789 0.191203
v -0.069447 0.145995 0.212905
v 0.075170 -0.000789 0.178856
v 0.085712 0.145995 0.199005
v 0.163894 -0.000789 0.072671
v 0.185596 0.145995 0.079464
v 0.151548 -0.000789 -0.065152
v 0.171697 0.145995 -0.075694
v 0.045362 -0.000789 -0.153877
v 0.052156 0.145995 -0.175578
v -0.202887 0.292779 -0.042137
v -0.103003 0.292779 -0.161679
v -0.188988 0.292779 0.113020
v -0.069447 0.292779 0.212905
v 0.085712 0.292779 0.199005
v 0.185596 0.292779 0.079464
v 0.171697 0.292779 -0.075694
v 0.052156 0.292779 -0.175578
v -0.202887 0.439562 -0.042137
v -0.103003 0.439562 -0.161679
v -0.188988 0.439562 0.113020
v -0.069447 0.439562 0.212905
v 0.085712 0.439562 0.199005
v 0.185596 0.439562 0.079464
v 0.171697 0.439562 -0.075694
v 0.052156 0.439562 -0.175578
v -0.168759 0.552319 -0.031454
v -0.086425 0.552319 -0.129992
v -0.157302 0.552319 0.096442
v -0.058764 0.552319 0.178776
v 0.069133 0.552319 0.167318
v 0.151467 0.552319 0.068781
v 0.140010 0.552319 -0.059115
v 0.041473 0.552319 -0.141449
v -0.056630 0.057099 -0.073047
v -0.107424 0.057099 -0.012256
v -0.100356 0.057099 0.066647
v -0.039565 0.057099 0.117442
v 0.039338 0.057099 0.110374
v 0.090133 0.057099 0.049583
v 0.083064 0.057099 -0.029321
v 0.022273 0.057099 -0.080115
v -0.134630 0.586346 -0.020771
v -0.069846 0.586346 -0.098305
v -0.125615 0.586346 0.079863
v -0.048081 0.586346 0.144647
v 0.052554 0.586346 0.135632
v 0.117338 0.586346 0.058098
v 0.108323 0.586346 -0.042536
v 0.030789 0.586346 -0.107320
v -0.107424 0.586346 -0.012256
v -0.056630 0.586346 -0.073047
v -0.100356 0.586346 0.066647
v -0.039565 0.586346 0.117442
v 0.039338 0.586346 0.110374
v 0.090133 0.586346 0.049583
v 0.083064 0.586346 -0.029321
v 0.022273 0.586346 -0.080115
vt 0.7162 0.9716
vt 0.7602 0.9858
vt 0.7162 0.9858
vt 0.7602 0.9716
vt 0.8036 0.9858
vt 0.4942 0.9716
vt 0.4513 0.9858
vt 0.4513 0.9716
vt 0.5380 0.9858
vt 0.4942 0.9858
vt 0.5380 0.9716
vt 0.5823 0.9858
vt 0.6269 0.9716
vt 0.5823 0.9716
vt 0.6717 0.9716
vt 0.6269 0.9858
vt 0.6717 0.9858
vt 0.8036 0.9716
vt 0.7602 0.7537
vt 0.7162 0.8057
vt 0.7162 0.7537
vt 0.8036 0.7537
vt 0.7602 0.8057
vt 0.4513 0.7537
vt 0.4942 0.8057
vt 0.4513 0.8057
vt 0.4942 0.7537
vt 0.5380 0.8057
vt 0.5823 0.7537
vt 0.5380 0.7537
vt 0.6269 0.8057
vt 0.5823 0.8057
vt 0.6269 0.7537
vt 0.6717 0.8057
vt 0.6717 0.7537
vt 0.7162 0.8573
vt 0.8036 0.8057
vt 0.7602 0.8573
vt 0.4513 0.8573
vt 0.4942 0.8573
vt 0.5380 0.8573
vt 0.5823 0.8573
vt 0.6269 0.8573
vt 0.6717 0.8573
vt 0.7162 0.9093
vt 0.8036 0.8573
vt 0.7602 0.9093
vt 0.4513 0.9093
vt 0.4942 0.9093
vt 0.5380 0.9093
vt 0.6269 0.9093
vt 0.5823 0.9093
vt 0.6717 0.9093
vt 0.7162 0.9513
vt 0.8036 0.9093
vt 0.7602 0.9513
vt 0.4513 0.9513
vt 0.4942 0.9513
vt 0.5380 0.9513
vt 0.6269 0.9513
vt 0.5823 0.9513
vt 0.6717 0.9513
vt 0.4133 0.9767
vt 0.2998 0.9625
vt 0.4275 0.8632
vt 0.8212 0.8166
vt 0.8488 0.7498
vt 0.8765 0.7613
vt 0.8036 0.9513
vt 0.8312 0.9852
vt 0.8541 0.8325
vt 0.8541 0.9852
vt 0.8084 0.9852
vt 0.8312 0.8325
vt 0.9684 0.9852
vt 0.9912 0.8325
vt 0.9912 0.9852
vt 0.9455 0.9852
vt 0.9684 0.8325
vt 0.9226 0.9852
vt 0.9455 0.8325
vt 0.8998 0.9852
vt 0.9226 0.8325
vt 0.8769 0.9852
vt 0.8998 0.8325
vt 0.8769 0.8325
vt 0.3140 0.8490
vt 0.3736 0.8326
vt 0.4439 0.9228
vt 0.3536 0.9931
vt 0.2834 0.9028
vt 0.8879 0.7890
vt 0.8765 0.8166
vt 0.8488 0.8281
vt 0.8097 0.7890
vt 0.8212 0.7613
vt 0.8084 0.8325
vn -0.4210 0.7245 -0.5458
vn 0.0000 1.0000 0.0000
vn -0.6836 0.7245 -0.0883
vn 0.0279 0.7245 0.6887
vn -0.6108 0.7245 0.3195
vn -0.0883 0.7245 0.6836
vn 0.4210 0.7245 0.5458
vn 0.4673 0.7245 -0.5067
vn 0.6578 0.7245 0.2059
vn -0.0279 0.7245 -0.6887
vn 0.6108 0.7245 -0.3195
vn 0.0883 0.7245 -0.6836
vn -0.0950 0.7245 -0.6827
vn -0.6579 0.7245 -0.2059
vn -0.5499 0.7245 -0.4156
vn -0.6108 0.7245 0.3196
vn -0.3173 0.7245 0.6120
vn -0.4156 0.7245 0.5499
vn 0.3196 0.7245 0.6107
vn 0.0950 0.7245 0.6827
vn 0.6579 0.7245 0.2059
vn 0.6571 0.7245 -0.2084
vn 0.3172 0.7245 -0.6120
vn 0.4156 0.7245 -0.5499
vn -0.3196 0.7245 -0.6107
vn -0.5992 -0.3484 -0.7208
vn -0.4623 -0.0754 -0.8835
vn -0.4593 -0.1347 -0.8780
vn -0.9384 -0.3290 -0.1054
vn -0.9516 -0.0754 -0.2979
vn -0.2979 -0.0754 0.9516
vn -0.8835 -0.0754 0.4623
vn 0.2506 -0.3484 0.9032
vn 0.4623 -0.0754 0.8835
vn 0.5947 -0.3398 0.7286
vn 0.7196 -0.6742 0.1662
vn 0.8835 -0.0754 -0.4623
vn 0.9516 -0.0754 0.2979
vn 0.4507 -0.3324 -0.8285
vn 0.2979 -0.0754 -0.9516
vn -0.2506 -0.3484 -0.9032
vn -0.4636 0.0000 -0.8860
vn -0.9543 0.0000 -0.2987
vn -0.8861 -0.0000 0.4636
vn -0.2987 -0.0000 0.9543
vn 0.4636 -0.0000 0.8860
vn 0.9543 -0.0000 0.2987
vn 0.8860 0.0000 -0.4636
vn 0.2987 0.0000 -0.9543
vn -0.4585 0.1476 -0.8763
vn -0.9439 0.1476 -0.2955
vn -0.8763 0.1476 0.4585
vn -0.2955 0.1476 0.9439
vn 0.4585 0.1476 0.8763
vn 0.8763 0.1476 -0.4585
vn 0.9439 0.1476 0.2955
vn 0.2955 0.1476 -0.9439
vn -0.4003 0.5044 -0.7651
vn -0.8241 0.5044 -0.2579
vn -0.7651 0.5044 0.4003
vn -0.2579 0.5044 0.8241
vn 0.4003 0.5044 0.7651
vn 0.7651 0.5044 -0.4003
vn 0.8241 0.5044 0.2579
vn 0.2579 0.5044 -0.8241
vn 0.5100 0.8541 -0.1024
vn -0.0928 0.9945 0.0485
vn -0.7763 0.5889 0.2248
vn -0.3196 0.7245 -0.6108
vn 0.3196 0.7245 0.6108
vn 0.6108 0.7245 -0.3196
vn 0.2059 0.7245 -0.6578
vn -0.0465 0.9988 -0.0143
vn 0.9300 0.2806 0.2372
vn -0.0225 0.9988 -0.0431
vn -0.0431 0.9988 0.0225
vn 0.8302 0.2925 -0.4745
vn -0.0143 0.9988 0.0465
vn 0.2372 0.2806 -0.9300
vn 0.0225 0.9988 0.0431
vn 0.0463 0.9988 0.0148
vn -0.9300 0.2806 -0.2372
vn 0.0431 0.9988 -0.0225
vn -0.8283 0.2878 0.4807
vn 0.0146 0.9988 -0.0464
vn -0.6578 0.7245 -0.2059
vn -0.2059 0.7245 0.6578
s off
f 50/1/1 57/2/2 58/3/2
f 49/4/3 59/5/2 57/2/2
f 52/6/4 59/7/2 51/8/5
f 52/6/6 61/9/2 60/10/2
f 53/11/7 62/12/2 61/9/2
f 55/13/8 62/12/2 54/14/9
f 56/15/10 63/16/2 55/13/11
f 56/15/12 58/3/2 64/17/2
f 50/1/13 49/4/14 57/2/2
f 49/4/15 51/18/16 59/5/2
f 52/6/17 60/10/2 59/7/2
f 52/6/18 53/11/19 61/9/2
f 53/11/20 54/14/21 62/12/2
f 55/13/22 63/16/2 62/12/2
f 56/15/23 64/17/2 63/16/2
f 56/15/24 50/1/25 58/3/2
s 1
f 2/19/26 4/20/27 1/21/28
f 5/22/29 3/23/30 2/19/26
f 5/24/29 8/25/31 6/26/32
f 7/27/33 10/28/34 8/25/31
f 11/29/35 10/28/34 9/30/36
f 11/29/35 14/31/37 12/32/38
f 13/33/39 16/34/40 14/31/37
f 15/35/41 4/20/27 16/34/40
f 3/23/30 18/36/42 4/20/27
f 6/37/32 17/38/43 3/23/30
f 8/25/31 19/39/44 6/26/32
f 10/28/34 20/40/45 8/25/31
f 12/32/38 21/41/46 10/28/34
f 14/31/37 22/42/47 12/32/38
f 16/34/40 23/43/48 14/31/37
f 4/20/27 24/44/49 16/34/40
f 17/38/43 26/45/50 18/36/42
f 19/46/44 25/47/51 17/38/43
f 20/40/45 27/48/52 19/39/44
f 21/41/46 28/49/53 20/40/45
f 22/42/47 29/50/54 21/41/46
f 22/42/47 31/51/55 30/52/56
f 24/44/49 31/51/55 23/43/48
f 24/44/49 26/45/50 32/53/57
f 25/47/51 34/54/58 26/45/50
f 27/55/52 33/56/59 25/47/51
f 28/49/53 35/57/60 27/48/52
f 29/50/54 36/58/61 28/49/53
f 30/52/56 37/59/62 29/50/54
f 30/52/56 39/60/63 38/61/64
f 32/53/57 39/60/63 31/51/55
f 26/45/50 40/62/65 32/53/57
f 9/63/36 5/64/29 13/65/39
f 44/66/66 47/67/67 48/68/68
f 33/56/59 50/1/69 34/54/58
f 51/18/16 33/56/59 35/69/60
f 36/58/61 51/8/16 35/57/60
f 53/11/70 36/58/61 37/59/62
f 54/14/9 37/59/62 38/61/64
f 55/13/71 38/61/64 39/60/63
f 40/62/65 55/13/71 39/60/63
f 34/54/58 56/15/72 40/62/65
f 57/70/73 41/71/74 58/72/75
f 59/73/76 42/74/77 57/70/73
f 60/75/78 43/76/79 59/77/76
f 61/78/80 44/79/66 60/75/78
f 62/80/81 45/81/82 61/78/80
f 63/82/83 46/83/84 62/80/81
f 64/84/85 47/85/67 63/82/83
f 58/72/75 48/86/68 64/84/85
f 2/19/26 3/23/30 4/20/27
f 5/22/29 6/37/32 3/23/30
f 5/24/29 7/27/33 8/25/31
f 7/27/33 9/30/36 10/28/34
f 11/29/35 12/32/38 10/28/34
f 11/29/35 13/33/39 14/31/37
f 13/33/39 15/35/41 16/34/40
f 15/35/41 1/21/28 4/20/27
f 3/23/30 17/38/43 18/36/42
f 6/37/32 19/46/44 17/38/43
f 8/25/31 20/40/45 19/39/44
f 10/28/34 21/41/46 20/40/45
f 12/32/38 22/42/47 21/41/46
f 14/31/37 23/43/48 22/42/47
f 16/34/40 24/44/49 23/43/48
f 4/20/27 18/36/42 24/44/49
f 17/38/43 25/47/51 26/45/50
f 19/46/44 27/55/52 25/47/51
f 20/40/45 28/49/53 27/48/52
f 21/41/46 29/50/54 28/49/53
f 22/42/47 30/52/56 29/50/54
f 22/42/47 23/43/48 31/51/55
f 24/44/49 32/53/57 31/51/55
f 24/44/49 18/36/42 26/45/50
f 25/47/51 33/56/59 34/54/58
f 27/55/52 35/69/60 33/56/59
f 28/49/53 36/58/61 35/57/60
f 29/50/54 37/59/62 36/58/61
f 30/52/56 38/61/64 37/59/62
f 30/52/56 31/51/55 39/60/63
f 32/53/57 40/62/65 39/60/63
f 26/45/50 34/54/58 40/62/65
f 1/87/28 15/88/41 13/65/39
f 13/65/39 11/89/35 9/63/36
f 9/63/36 7/90/33 5/64/29
f 5/64/29 2/91/26 1/87/28
f 1/87/28 13/65/39 5/64/29
f 48/68/68 41/92/74 42/93/77
f 42/93/77 43/94/79 44/66/66
f 44/66/66 45/95/82 46/96/84
f 46/96/84 47/67/67 44/66/66
f 48/68/68 42/93/77 44/66/66
f 33/56/59 49/4/86 50/1/69
f 51/18/16 49/4/86 33/56/59
f 36/58/61 52/6/87 51/8/16
f 53/11/70 52/6/87 36/58/61
f 54/14/9 53/11/70 37/59/62
f 55/13/71 54/14/9 38/61/64
f 40/62/65 56/15/72 55/13/71
f 34/54/58 50/1/69 56/15/72
f 57/70/73 42/74/77 41/71/74
f 59/73/76 43/97/79 42/74/77
f 60/75/78 44/79/66 43/76/79
f 61/78/80 45/81/82 44/79/66
f 62/80/81 46/83/84 45/81/82
f 63/82/83 47/85/67 46/83/84
f 64/84/85 48/86/68 47/85/67
f 58/72/75 41/71/74 48/86/68
