# Blender v2.77 (sub 0) OBJ File: ''
# www.blender.org
o Cube.001
v 2.569192 0.030808 -1.787204
v 2.330994 1.913210 -1.787203
v 2.330993 0.030808 -1.787204
v 2.569190 2.232548 2.569193
v -2.569193 2.598653 2.569191
v 2.569191 0.794398 2.569192
v -2.569191 0.030808 -2.569193
v -2.569191 2.598654 -2.569191
v 2.569193 2.232548 -2.569191
v 2.549022 2.094549 1.345642
v 2.549022 0.896459 1.345642
v 2.569192 1.913210 -1.787203
v 2.569192 0.030808 -2.569191
v -2.569191 0.030808 0.722160
v -2.569192 0.030808 1.657596
v 2.316626 0.896459 1.345642
v 2.316625 2.094549 1.345642
v 2.569190 2.598653 2.569193
v 2.549022 2.094549 0.566351
v 2.569193 2.598654 -2.569190
v 2.569192 1.913210 -0.842337
v 2.549022 0.896459 0.566351
v 2.569192 0.794398 -0.842338
v 2.569192 0.030808 0.722160
v 2.316625 2.094549 0.566351
v 2.316626 0.896459 0.566350
v 2.330993 0.030808 -0.842338
v 2.330993 1.913210 -0.842337
v 2.569192 0.030808 2.569192
v -2.569192 0.030808 2.569191
v -2.569191 0.030808 -1.787205
v -2.569191 0.030808 -0.842339
v 2.569192 0.030808 -0.842338
v 2.569192 0.030808 1.657597
v -0.145084 3.951997 -1.109125
v 0.145084 3.951997 -1.109124
v 0.145084 3.951997 1.109128
v -0.145084 3.951997 1.109127
vt 0.2320 0.3294
vt 0.0796 0.3112
vt 0.2319 0.3102
vt -0.0003 0.1277
vt 0.5031 0.0867
vt 0.0038 0.2760
vt 0.4651 0.1139
vt 0.4663 0.3359
vt 0.0183 0.2996
vt 0.1259 0.3279
vt 0.0118 0.2068
vt 0.1259 0.2162
vt 0.4177 0.3112
vt 0.4906 0.1358
vt 0.4906 0.3409
vt 0.1308 0.3508
vt 0.0868 0.3508
vt -0.0017 0.1015
vt 0.1166 0.2139
vt 0.2532 0.2399
vt 0.1166 0.2404
vt 0.0119 0.3750
vt 0.1984 0.3278
vt 0.4906 0.3750
vt 0.3297 0.3111
vt 0.1985 0.2163
vt 0.3298 0.2068
vt 0.1840 0.1355
vt 0.9028 0.9234
vt 0.7872 0.7456
vt 0.9028 0.7456
vt 0.0278 0.2407
vt 0.0277 0.2142
vt 0.3419 0.2131
vt 0.4785 0.2390
vt 0.3420 0.2395
vt 0.2531 0.2134
vt 0.9635 0.6767
vt 0.7410 0.2334
vt 0.9635 0.2334
vt 0.0033 0.3310
vt 0.0797 0.3305
vt 0.1774 0.2774
vt 0.2518 0.3001
vt 0.0688 0.3013
vt 0.0052 0.3383
vt 0.5042 0.3361
vt 0.0041 0.0890
vt 0.0233 0.3283
vt 0.0210 0.1162
vt 0.0119 0.3408
vt 0.4177 0.1358
vt 0.4971 0.1015
vt 0.4971 0.3508
vt 0.4916 0.3498
vt 0.3295 0.3508
vt -0.0017 0.3508
vt 0.3298 0.1357
vt 0.0968 0.1355
vt 0.0118 0.1356
vt 0.7872 0.9234
vt 0.4784 0.2126
vt 0.7410 0.6767
vt 0.0032 0.3118
vt 0.0687 0.2782
vt 0.2516 0.2769
vt 0.0157 0.6533
vt 0.3711 0.9012
vt 0.3338 0.9021
vt 0.6828 0.5598
vt 0.2120 0.9186
vt 0.0228 0.5628
vt 0.0043 0.6481
vt 0.3670 0.9141
vt 0.3282 0.9141
vt 0.2072 0.5413
vt 0.5555 0.4957
vt 0.5555 0.5413
vt 0.6830 0.4840
vt 0.1944 0.8528
vt 0.0004 0.4840
vt 0.6770 0.6375
vt 0.4969 0.9172
vt 0.6909 0.6481
vt 0.2072 0.4957
vt 0.4891 0.8528
vn 0.0000 -0.0000 1.0000
vn 0.0000 0.0000 -1.0000
vn 0.9999 0.0000 -0.0165
vn 1.0000 -0.0000 0.0000
vn -1.0000 -0.0000 -0.0000
vn 0.9992 -0.0400 0.0000
vn 0.9999 0.0000 0.0143
vn 0.9997 0.0233 0.0000
vn 0.0000 -1.0000 -0.0000
vn 0.0000 1.0000 0.0000
vn 0.9996 0.0272 0.0108
vn 0.9997 0.0179 -0.0150
vn 0.4414 0.3692 -0.8179
vn 0.0000 0.7334 -0.6798
vn -0.5549 0.6370 0.5351
vn -0.4875 0.8731 -0.0000
vn -0.6519 0.5936 -0.4720
vn -0.4410 0.3688 0.8182
vn -0.0000 0.7334 0.6798
vn 0.5554 0.6368 -0.5349
vn 0.4875 0.8731 0.0000
vn 0.6553 0.5903 0.4712
vn 0.5333 0.4845 -0.6935
vn -0.5150 0.4843 -0.7073
vn -0.7745 0.5144 0.3682
vn -0.5332 0.4841 0.6939
vn 0.5181 0.4861 0.7037
vn 0.7748 0.5143 -0.3677
s off
f 1/1/1 2/2/1 3/3/1
f 4/4/1 5/5/1 6/6/1
f 7/7/2 8/8/2 9/9/2
f 10/10/3 6/11/3 11/12/3
f 12/13/4 13/14/4 9/15/4
f 14/16/5 15/17/5 5/18/5
f 10/19/2 16/20/2 17/21/2
f 18/22/6 19/23/6 20/24/6
f 21/25/7 22/26/7 23/27/7
f 11/12/8 24/28/8 22/26/8
f 25/29/4 16/30/4 26/31/4
f 10/19/9 25/32/9 19/33/9
f 22/34/1 25/35/1 26/36/1
f 22/34/10 16/20/10 11/37/10
f 2/38/4 27/39/4 3/40/4
f 21/41/9 2/2/9 12/42/9
f 23/43/2 27/44/2 28/45/2
f 1/1/1 12/42/1 2/2/1
f 29/46/1 6/6/1 30/47/1
f 4/4/1 18/48/1 5/5/1
f 5/5/1 30/47/1 6/6/1
f 20/49/2 9/9/2 8/8/2
f 13/50/2 7/7/2 9/9/2
f 10/10/3 4/51/3 6/11/3
f 12/13/4 1/52/4 13/14/4
f 5/18/5 8/53/5 14/16/5
f 7/54/5 31/55/5 8/53/5
f 32/56/5 14/16/5 8/53/5
f 15/17/5 30/57/5 5/18/5
f 8/53/5 31/55/5 32/56/5
f 10/19/2 11/37/2 16/20/2
f 9/15/4 20/24/4 12/13/4
f 18/22/3 4/51/3 10/10/3
f 19/23/11 21/25/11 20/24/11
f 18/22/6 10/10/6 19/23/6
f 12/13/4 20/24/4 21/25/4
f 21/25/7 19/23/7 22/26/7
f 23/27/7 22/26/7 33/58/7
f 11/12/12 6/11/12 34/59/12
f 34/59/8 24/28/8 11/12/8
f 6/11/4 29/60/4 34/59/4
f 33/58/8 22/26/8 24/28/8
f 25/29/4 17/61/4 16/30/4
f 10/19/9 17/21/9 25/32/9
f 22/34/1 19/62/1 25/35/1
f 22/34/10 26/36/10 16/20/10
f 2/38/4 28/63/4 27/39/4
f 21/41/9 28/64/9 2/2/9
f 28/45/2 21/65/2 23/43/2
f 23/43/2 33/66/2 27/44/2
f 20/67/13 35/68/14 36/69/14
f 5/70/15 35/71/16 8/72/17
f 5/73/18 37/74/19 38/75/19
f 38/76/10 36/77/10 35/78/10
f 20/79/20 37/80/21 18/81/22
f 20/67/23 8/82/24 35/68/14
f 5/70/25 38/83/16 35/71/16
f 5/73/26 18/84/27 37/74/19
f 38/76/10 37/85/10 36/77/10
f 20/79/28 36/86/21 37/80/21
