# Blender v2.77 (sub 0) OBJ File: ''
# www.blender.org
o Cube_Cube.001
v -3.258893 -0.004974 3.258893
v -3.258893 3.661235 3.258893
v -3.258893 -0.004974 -1.771492
v -3.258893 3.661235 -1.771492
v 3.258893 -0.003864 1.292471
v 3.258893 2.141243 1.292471
v 3.258893 -0.003864 0.194930
v 3.258893 2.141243 0.194930
v -1.011720 5.374104 1.075770
v -1.011720 5.374104 0.411631
v 1.011720 5.374104 0.411631
v 1.011720 5.374104 1.075770
v 3.258893 3.661235 -1.771492
v 3.258893 -0.004974 -1.771492
v 3.258893 3.661235 3.258893
v 3.258893 -0.004974 3.258893
v 2.953471 2.141243 0.194930
v 2.953471 -0.003864 0.194930
v 2.953471 2.141243 1.292471
v 2.953471 -0.003864 1.292471
v 4.718619 0.099101 -2.517405
v 3.253403 7.284557 -3.645972
v 4.718619 0.050937 -2.824060
v 3.253403 7.236392 -3.952628
v 5.022921 0.159658 -2.526916
v 3.557704 7.345114 -3.655484
v 5.022921 0.111494 -2.833571
v 3.557704 7.296950 -3.962139
v 0.170529 0.174809 -2.529295
v 1.536044 7.379406 -3.660870
v 0.170529 0.126645 -2.835951
v 1.536044 7.331243 -3.967525
v 0.475641 0.118372 -2.520431
v 1.841156 7.322970 -3.652005
v 0.475641 0.070208 -2.827087
v 1.841156 7.274806 -3.958661
v 4.718619 0.032735 -6.435533
v 3.253403 7.194650 -5.166119
v 4.718619 0.086910 -6.741184
v 3.253403 7.248826 -5.471770
v 5.022921 0.093094 -6.424834
v 3.557704 7.255009 -5.155420
v 5.022921 0.147269 -6.730485
v 3.557704 7.309185 -5.461071
v 0.170529 0.108195 -6.422157
v 1.536044 7.289189 -5.149362
v 0.170529 0.162370 -6.727809
v 1.536044 7.343364 -5.455013
v 0.475641 0.051943 -6.432128
v 1.841156 7.232937 -5.159332
v 0.475641 0.106118 -6.737779
v 1.841156 7.287112 -5.464983
v 1.558449 7.168303 -3.598998
v 1.694907 8.519433 -3.735456
v 1.558449 7.168303 -5.598998
v 1.694907 8.519433 -5.462541
v 3.558449 7.168303 -3.598998
v 3.421992 8.519433 -3.735456
v 3.558449 7.168303 -5.598998
v 3.421992 8.519433 -5.462541
v 1.558449 8.519433 -3.598998
v 1.558449 8.519433 -5.598998
v 3.558449 8.519433 -5.598998
v 3.558449 8.519433 -3.598998
v 1.694907 7.776696 -3.735456
v 1.694907 7.776696 -5.462541
v 3.421992 7.776696 -5.462541
v 3.421992 7.776696 -3.735456
vt 0.4942 0.0426
vt 0.0106 0.3951
vt 0.0106 0.0426
vt 0.0106 0.3695
vt 0.4926 0.0984
vt 0.4926 0.3695
vt 0.0694 0.2960
vt 0.2644 0.2681
vt 0.2645 0.2959
vt 0.0117 0.3528
vt 0.4967 0.0800
vt 0.4967 0.3528
vt 0.6887 0.5380
vt 0.3016 0.9222
vt 0.0047 0.5380
vt 0.4571 0.6167
vt 0.2985 0.5646
vt 0.4571 0.5646
vt 0.6885 0.5253
vt 0.3016 0.9093
vt 0.0050 0.5253
vt 0.6878 0.5745
vt 0.2407 0.8650
vt 0.0054 0.5745
vt 0.6832 0.5823
vt 0.2429 0.8684
vt 0.0112 0.5823
vt 0.3041 0.2482
vt 0.4961 0.0386
vt 0.4961 0.3967
vt 0.1969 0.2482
vt 0.0049 0.3967
vt 0.0049 0.0386
vt 0.1969 0.0387
vt 0.7282 0.6786
vt 0.9709 0.2387
vt 0.9729 0.6766
vt 0.2577 0.2633
vt 0.0532 0.3016
vt 0.0519 0.2724
vt 0.0008 0.2860
vt 0.4939 0.2654
vt 0.4939 0.2860
vt 0.1071 0.2978
vt 0.2335 0.2626
vt 0.2335 0.2978
vt 0.0007 0.2844
vt 0.5027 0.2634
vt 0.5027 0.2844
vt 0.4969 0.3670
vt 0.0027 0.3877
vt 0.0027 0.3670
vt 0.0003 0.2653
vt 0.4934 0.2859
vt 0.0003 0.2859
vt 0.4939 0.2587
vt 0.4565 0.2961
vt 0.4565 0.2587
vt 0.7050 0.5229
vt 0.6883 0.5396
vt 0.6883 0.5229
vt 0.0099 0.2053
vt 0.4950 0.1850
vt 0.4950 0.2053
vt 0.0099 0.3560
vt 0.4950 0.3763
vt 0.0099 0.3763
vt 0.0099 0.1839
vt 0.4950 0.1636
vt 0.4950 0.1839
vt 0.0061 0.4239
vt 0.4912 0.4036
vt 0.4912 0.4239
vt 0.4649 0.3631
vt 0.4362 0.3918
vt 0.4362 0.3631
vt 0.6883 0.5581
vt 0.7050 0.5749
vt 0.6883 0.5749
vt 0.0099 0.1209
vt 0.4950 0.1412
vt 0.0099 0.1412
vt 0.0099 0.0995
vt 0.4950 0.1198
vt 0.0099 0.1198
vt 0.0099 0.2278
vt 0.4950 0.2481
vt 0.0099 0.2481
vt 0.0099 0.1625
vt 0.4950 0.1422
vt 0.4950 0.1625
vt 0.4650 0.3622
vt 0.4361 0.3911
vt 0.4361 0.3622
vt 0.6857 0.1682
vt 0.7025 0.1850
vt 0.6857 0.1850
vt 0.0099 0.2705
vt 0.4950 0.2908
vt 0.0099 0.2908
vt 0.0099 0.3336
vt 0.4950 0.3133
vt 0.4950 0.3336
vt 0.0099 0.2491
vt 0.4950 0.2694
vt 0.0099 0.2694
vt 0.0099 0.2064
vt 0.4950 0.2267
vt 0.0099 0.2267
vt 0.4330 0.3589
vt 0.4671 0.3930
vt 0.4330 0.3930
vt 0.6672 0.1850
vt 0.6505 0.1682
vt 0.6672 0.1682
vt 0.0035 0.4055
vt 0.4993 0.0706
vt 0.4993 0.4055
vt 0.0059 0.3986
vt 0.4997 0.0650
vt 0.4997 0.3986
vt 0.0029 0.4296
vt 0.4921 0.0991
vt 0.4921 0.4296
vt 0.0112 0.4073
vt 0.4980 0.0784
vt 0.4980 0.4073
vt 0.0350 0.0134
vt 0.4796 0.4580
vt 0.0350 0.4580
vt 0.4882 0.2304
vt 0.3935 0.0103
vt 0.4882 0.0103
vt 0.0697 0.4275
vt 0.0407 0.0308
vt 0.0697 0.0598
vt 0.4374 0.4275
vt 0.0407 0.4565
vt 0.4374 0.0598
vt 0.4665 0.4565
vt 0.4665 0.0308
vt 0.2693 0.3632
vt 0.0141 0.1080
vt 0.2693 0.1080
vt 0.2718 0.1080
vt 0.3815 0.3632
vt 0.2718 0.3632
vt 0.4882 0.4526
vt 0.3935 0.2325
vt 0.4882 0.2325
vt 0.3840 0.1080
vt 0.4938 0.3632
vt 0.3840 0.3632
vt 0.4942 0.3951
vt 0.0106 0.0984
vt 0.0694 0.2682
vt 0.0117 0.0800
vt 0.3919 0.9222
vt 0.2985 0.6167
vt 0.3918 0.9093
vt 0.4525 0.8650
vt 0.4515 0.8684
vt 0.3041 0.0387
vt 0.7184 0.2407
vt 0.2590 0.2926
vt 0.0008 0.2654
vt 0.1071 0.2626
vt 0.0007 0.2634
vt 0.4969 0.3877
vt 0.4934 0.2653
vt 0.4939 0.2961
vt 0.7050 0.5396
vt 0.0099 0.1850
vt 0.4950 0.3560
vt 0.0099 0.1636
vt 0.0061 0.4036
vt 0.4649 0.3918
vt 0.7050 0.5581
vt 0.4950 0.1209
vt 0.4950 0.0995
vt 0.4950 0.2278
vt 0.0099 0.1422
vt 0.4650 0.3911
vt 0.7025 0.1682
vt 0.4950 0.2705
vt 0.0099 0.3133
vt 0.4950 0.2491
vt 0.4950 0.2064
vt 0.4671 0.3589
vt 0.6505 0.1850
vt 0.0035 0.0706
vt 0.0059 0.0650
vt 0.0029 0.0991
vt 0.0112 0.0784
vt 0.4796 0.0134
vt 0.3935 0.2304
vt 0.0141 0.3632
vt 0.3815 0.1080
vt 0.3935 0.4526
vt 0.4938 0.1080
vn -1.0000 0.0000 0.0000
vn 0.0000 0.0000 -1.0000
vn 0.0000 0.0000 1.0000
vn 0.6062 0.7953 0.0000
vn 0.0000 1.0000 0.0000
vn -0.6062 0.7953 0.0000
vn 0.0000 0.7867 0.6173
vn 0.0000 0.7867 -0.6173
vn 1.0000 0.0000 0.0000
vn -0.9803 -0.1951 0.0306
vn 0.0000 -1.0000 0.0000
vn -0.0000 -0.1552 -0.9879
vn 0.9803 0.1951 -0.0306
vn -0.0000 0.1552 0.9879
vn 0.1975 -0.9684 0.1521
vn -0.1975 0.9684 -0.1521
vn -0.9829 0.1818 -0.0286
vn 0.9829 -0.1818 0.0286
vn -0.1840 -0.9710 0.1525
vn 0.1840 0.9710 -0.1525
vn -0.9803 -0.1944 -0.0345
vn 0.0000 0.1745 -0.9847
vn 0.9803 0.1944 0.0345
vn 0.0000 -0.1745 0.9847
vn 0.1975 -0.9653 -0.1711
vn -0.1975 0.9653 0.1711
vn -0.9829 0.1812 0.0321
vn 0.9829 -0.1812 -0.0321
vn -0.1840 -0.9678 -0.1715
vn 0.1840 0.9678 0.1715
s off
f 4/1/1 1/2/1 2/3/1
f 13/4/2 3/5/2 4/6/2
f 5/7/2 19/8/2 6/9/2
f 2/10/3 16/11/3 15/12/3
f 13/13/4 12/14/4 15/15/4
f 11/16/5 9/17/5 12/18/5
f 2/19/6 10/20/6 4/21/6
f 15/22/7 9/23/7 2/24/7
f 4/25/8 11/26/8 13/27/8
f 8/28/9 14/29/9 13/30/9
f 6/31/9 13/30/9 15/32/9
f 6/31/9 16/33/9 5/34/9
f 19/35/9 18/36/9 17/37/9
f 8/38/3 18/39/3 7/40/3
f 22/41/10 23/42/10 21/43/10
f 6/44/11 17/45/11 8/46/11
f 24/47/12 27/48/12 23/49/12
f 28/50/13 25/51/13 27/52/13
f 22/53/14 25/54/14 26/55/14
f 23/56/15 25/57/15 21/58/15
f 26/59/16 24/60/16 22/61/16
f 30/62/17 31/63/17 29/64/17
f 36/65/12 31/66/12 32/67/12
f 36/68/18 33/69/18 35/70/18
f 34/71/14 29/72/14 33/73/14
f 31/74/19 33/75/19 29/76/19
f 36/77/20 30/78/20 34/79/20
f 40/80/21 37/81/21 38/82/21
f 44/83/22 39/84/22 40/85/22
f 42/86/23 43/87/23 44/88/23
f 42/89/24 37/90/24 41/91/24
f 39/92/25 41/93/25 37/94/25
f 44/95/26 38/96/26 42/97/26
f 48/98/27 45/99/27 46/100/27
f 48/101/22 51/102/22 47/103/22
f 50/104/28 51/105/28 52/106/28
f 46/107/24 49/108/24 50/109/24
f 45/110/29 51/111/29 49/112/29
f 52/113/30 46/114/30 50/115/30
f 62/116/1 53/117/1 61/118/1
f 63/119/2 55/120/2 62/121/2
f 64/122/9 59/123/9 63/124/9
f 61/125/3 57/126/3 64/127/3
f 55/128/11 57/129/11 53/130/11
f 56/131/3 67/132/3 60/133/3
f 56/134/5 61/135/5 54/136/5
f 60/137/5 62/138/5 56/134/5
f 58/139/5 63/140/5 60/137/5
f 54/136/5 64/141/5 58/139/5
f 67/142/5 65/143/5 68/144/5
f 60/145/1 68/146/1 58/147/1
f 54/148/9 66/149/9 56/150/9
f 58/151/2 65/152/2 54/153/2
f 4/1/1 3/154/1 1/2/1
f 13/4/2 14/155/2 3/5/2
f 5/7/2 20/156/2 19/8/2
f 2/10/3 1/157/3 16/11/3
f 13/13/4 11/158/4 12/14/4
f 11/16/5 10/159/5 9/17/5
f 2/19/6 9/160/6 10/20/6
f 15/22/7 12/161/7 9/23/7
f 4/25/8 10/162/8 11/26/8
f 8/28/9 7/163/9 14/29/9
f 6/31/9 8/28/9 13/30/9
f 6/31/9 15/32/9 16/33/9
f 19/35/9 20/164/9 18/36/9
f 8/38/3 17/165/3 18/39/3
f 22/41/10 24/166/10 23/42/10
f 6/44/11 19/167/11 17/45/11
f 24/47/12 28/168/12 27/48/12
f 28/50/13 26/169/13 25/51/13
f 22/53/14 21/170/14 25/54/14
f 23/56/15 27/171/15 25/57/15
f 26/59/16 28/172/16 24/60/16
f 30/62/17 32/173/17 31/63/17
f 36/65/12 35/174/12 31/66/12
f 36/68/18 34/175/18 33/69/18
f 34/71/14 30/176/14 29/72/14
f 31/74/19 35/177/19 33/75/19
f 36/77/20 32/178/20 30/78/20
f 40/80/21 39/179/21 37/81/21
f 44/83/22 43/180/22 39/84/22
f 42/86/23 41/181/23 43/87/23
f 42/89/24 38/182/24 37/90/24
f 39/92/25 43/183/25 41/93/25
f 44/95/26 40/184/26 38/96/26
f 48/98/27 47/185/27 45/99/27
f 48/101/22 52/186/22 51/102/22
f 50/104/28 49/187/28 51/105/28
f 46/107/24 45/188/24 49/108/24
f 45/110/29 47/189/29 51/111/29
f 52/113/30 48/190/30 46/114/30
f 62/116/1 55/191/1 53/117/1
f 63/119/2 59/192/2 55/120/2
f 64/122/9 57/193/9 59/123/9
f 61/125/3 53/194/3 57/126/3
f 55/128/11 59/195/11 57/129/11
f 56/131/3 66/196/3 67/132/3
f 56/134/5 62/138/5 61/135/5
f 60/137/5 63/140/5 62/138/5
f 58/139/5 64/141/5 63/140/5
f 54/136/5 61/135/5 64/141/5
f 67/142/5 66/197/5 65/143/5
f 60/145/1 67/198/1 68/146/1
f 54/148/9 65/199/9 66/149/9
f 58/151/2 68/200/2 65/152/2
