# Blender v2.78 (sub 0) OBJ File: 'untitled.blend'
# www.blender.org
o Cylinder
v 2.009450 2.060091 -3.514493
v 4.500700 2.060091 -3.514493
v 2.009450 1.899930 -3.816937
v 4.500700 1.899931 -3.816937
v 2.009451 1.557926 -3.829456
v 4.500701 1.557927 -3.829456
v 2.009451 1.376082 -3.539531
v 4.500700 1.376083 -3.539531
v 2.009451 1.536243 -3.237087
v 4.500701 1.536243 -3.237087
v 2.009450 1.878247 -3.224568
v 4.500700 1.878247 -3.224568
v 1.950684 1.562758 -3.100049
v 4.441934 1.562759 -3.100049
v 1.950684 1.402598 -3.402493
v 4.441935 1.402598 -3.402493
v 1.950685 1.060593 -3.415012
v 4.441935 1.060594 -3.415012
v 1.950685 0.878750 -3.125087
v 4.441935 0.878750 -3.125087
v 1.950684 1.038910 -2.822643
v 4.441935 1.038911 -2.822643
v 1.950684 1.380914 -2.810124
v 4.441934 1.380915 -2.810124
v 1.665725 1.519883 -4.191256
v 4.156975 1.519883 -4.191256
v 1.665725 1.203692 -4.322203
v 4.156975 1.203693 -4.322204
v 1.665725 0.932193 -4.113848
v 4.156975 0.932194 -4.113848
v 1.665725 0.976885 -3.774545
v 4.156975 0.976885 -3.774545
v 1.665725 1.293075 -3.643598
v 4.156975 1.293076 -3.643598
v 1.665725 1.564574 -3.851953
v 4.156975 1.564574 -3.851953
v 1.744946 0.974198 -3.700830
v 4.236196 0.974199 -3.700830
v 1.744947 0.658008 -3.831778
v 4.236197 0.658008 -3.831778
v 1.744947 0.386509 -3.623423
v 4.236197 0.386509 -3.623423
v 1.744947 0.431200 -3.284120
v 4.236197 0.431201 -3.284120
v 1.744947 0.747391 -3.153172
v 4.236197 0.747391 -3.153172
v 1.744946 1.018890 -3.361528
v 4.236196 1.018890 -3.361528
v 1.593863 0.414924 -4.593480
v 4.085113 0.414924 -4.593481
v 1.593863 0.332338 -4.261361
v 4.085113 0.332338 -4.261362
v 1.593863 0.578669 -4.023780
v 4.085113 0.578669 -4.023781
v 1.593863 0.907586 -4.118319
v 4.085113 0.907586 -4.118320
v 1.593863 0.990172 -4.450438
v 4.085113 0.990172 -4.450438
v 1.593863 0.743841 -4.688019
v 4.085113 0.743841 -4.688019
v 1.916376 -0.179112 -4.828332
v 4.407625 -0.179112 -4.828333
v 1.916376 -0.261698 -4.496213
v 4.407626 -0.261698 -4.496213
v 1.916376 -0.015367 -4.258632
v 4.407626 -0.015367 -4.258633
v 1.916376 0.313550 -4.353169
v 4.407626 0.313550 -4.353171
v 1.916376 0.396135 -4.685289
v 4.407626 0.396135 -4.685290
v 1.916376 0.149804 -4.922871
v 4.407626 0.149804 -4.922871
v 2.006203 0.157015 -4.262967
v 4.497453 0.157015 -4.262967
v 2.006203 -0.139368 -4.091850
v 4.497454 -0.139368 -4.091851
v 2.006204 -0.139368 -3.749617
v 4.497454 -0.139368 -3.749618
v 2.006204 0.157015 -3.578500
v 4.497454 0.157015 -3.578501
v 2.006204 0.453397 -3.749617
v 4.497454 0.453398 -3.749618
v 2.006203 0.453397 -4.091850
v 4.497453 0.453398 -4.091851
v 1.857610 0.087941 -3.579134
v 4.348859 0.087941 -3.579135
v 1.857610 -0.208442 -3.408018
v 4.348859 -0.208442 -3.408018
v 1.857610 -0.208442 -3.065784
v 4.348860 -0.208442 -3.065785
v 1.857610 0.087941 -2.894668
v 4.348860 0.087941 -2.894668
v 1.857610 0.384323 -3.065784
v 4.348859 0.384324 -3.065785
v 1.857610 0.384323 -3.408018
v 4.348859 0.384324 -3.408018
v -4.856881 4.331376 3.796639
v -4.856881 -0.201183 -2.778789
v -4.856882 -0.201184 3.796639
v -4.856882 4.331378 -2.778788
v 4.148404 -0.201183 -2.778789
v 4.148403 -0.197446 2.583715
v 3.869296 2.511459 2.583715
v 4.148404 2.511459 2.583715
v 4.148404 4.331376 3.796639
v 4.148403 -0.201184 3.796638
v -2.031693 6.904758 -0.160499
v 1.323215 6.904758 1.178350
v 1.323215 6.904758 -0.160499
v -2.031693 6.904758 1.178350
v 4.148404 4.331377 -2.778789
v 4.148404 2.505897 -0.158392
v 3.860719 2.511489 -1.514588
v 4.148404 2.511490 -1.514588
v 4.148404 2.511460 1.105809
v 4.148404 0.995179 -0.158393
v 4.148403 -0.197445 1.105809
v 4.148403 0.993874 -1.514588
v 3.860719 2.505897 -0.158393
v 3.860719 0.993874 -1.514588
v 3.860719 0.995179 -0.158393
v 3.869296 2.511459 1.105809
v 3.869296 -0.197446 2.583715
v 3.869296 -0.197445 1.105809
v 6.606821 -0.275358 -1.623258
v 6.606822 1.010570 -1.422304
v 7.061465 -0.275358 -1.434938
v 6.919369 1.010570 -1.292842
v 7.249786 -0.275358 -0.980294
v 7.048831 1.010570 -0.980294
v 7.061464 -0.275358 -0.525650
v 6.919370 1.010569 -0.667746
v 6.606821 -0.275358 -0.337330
v 6.606821 1.010569 -0.538284
v 6.152177 -0.275358 -0.525650
v 6.294273 1.010569 -0.667745
v 5.963857 -0.275358 -0.980294
v 6.164810 1.010570 -0.980294
v 6.152178 -0.275358 -1.434938
v 6.294273 1.010570 -1.292842
v 6.606821 0.322603 -1.497032
v 6.972209 0.322603 -1.345683
v 7.123559 0.322603 -0.980294
v 6.972210 0.322603 -0.614905
v 6.606821 0.322603 -0.463556
v 6.241433 0.322603 -0.614905
v 6.090082 0.322603 -0.980294
v 6.241432 0.322603 -1.345683
vt 0.7072 0.1592
vt 0.9741 0.1225
vt 0.9741 0.1592
vt 0.7072 0.1225
vt 0.9741 0.0858
vt 0.7072 0.0492
vt 0.9741 0.0492
vt 0.9741 0.0125
vt 0.6233 0.2804
vt 0.5566 0.3189
vt 0.5566 0.2419
vt 0.9741 0.2325
vt 0.7072 0.1959
vt 0.9741 0.1959
vt 0.6034 0.3211
vt 0.5557 0.2385
vt 0.6034 0.2385
vt 0.7072 0.1592
vt 0.9741 0.1225
vt 0.9741 0.1592
vt 0.7072 0.0858
vt 0.9741 0.0858
vt 0.9741 0.0492
vt 0.7072 0.0492
vt 0.9741 0.0125
vt 0.6233 0.2804
vt 0.5566 0.3189
vt 0.5566 0.2419
vt 0.7072 0.2325
vt 0.9741 0.1959
vt 0.9741 0.2325
vt 0.7072 0.1959
vt 0.6034 0.3211
vt 0.5557 0.2385
vt 0.6034 0.2385
vt 0.7072 0.1592
vt 0.9741 0.1225
vt 0.9741 0.1592
vt 0.7072 0.1225
vt 0.9741 0.0858
vt 0.7072 0.0858
vt 0.9741 0.0492
vt 0.7072 0.0125
vt 0.9741 0.0125
vt 0.6011 0.3189
vt 0.5566 0.3189
vt 0.5566 0.2419
vt 0.7072 0.2325
vt 0.9741 0.1959
vt 0.9741 0.2325
vt 0.6034 0.3211
vt 0.5557 0.2385
vt 0.6034 0.2385
vt 0.7072 0.1592
vt 0.9741 0.1225
vt 0.9741 0.1592
vt 0.7072 0.1225
vt 0.9741 0.0858
vt 0.7072 0.0858
vt 0.9741 0.0492
vt 0.7072 0.0125
vt 0.9741 0.0125
vt 0.6011 0.3189
vt 0.5566 0.3189
vt 0.5566 0.2419
vt 0.9741 0.2325
vt 0.7072 0.1959
vt 0.9741 0.1959
vt 0.5557 0.3211
vt 0.5318 0.2798
vt 0.6034 0.2385
vt 0.7072 0.1592
vt 0.9741 0.1225
vt 0.9741 0.1592
vt 0.7072 0.1225
vt 0.9741 0.0858
vt 0.7072 0.0492
vt 0.9741 0.0492
vt 0.9741 0.0125
vt 0.6011 0.3189
vt 0.5566 0.3189
vt 0.5566 0.2419
vt 0.7072 0.2325
vt 0.9741 0.1959
vt 0.9741 0.2325
vt 0.7072 0.1959
vt 0.6034 0.3211
vt 0.5318 0.2798
vt 0.6273 0.2798
vt 0.7072 0.1592
vt 0.9741 0.1225
vt 0.9741 0.1592
vt 0.7072 0.0858
vt 0.9741 0.0858
vt 0.9741 0.0492
vt 0.7072 0.0492
vt 0.9741 0.0125
vt 0.6011 0.3189
vt 0.5566 0.3189
vt 0.5566 0.2419
vt 0.7072 0.2325
vt 0.9741 0.1959
vt 0.9741 0.2325
vt 0.6034 0.3211
vt 0.5557 0.2385
vt 0.6034 0.2385
vt 0.7072 0.1592
vt 0.9741 0.1225
vt 0.9741 0.1592
vt 0.7072 0.1225
vt 0.9741 0.0858
vt 0.7072 0.0492
vt 0.9741 0.0492
vt 0.9741 0.0125
vt 0.6233 0.2804
vt 0.5344 0.2804
vt 0.5566 0.2419
vt 0.9741 0.2325
vt 0.7072 0.1959
vt 0.9741 0.1959
vt 0.6034 0.3211
vt 0.5557 0.2385
vt 0.6034 0.2385
vt 0.7072 0.1592
vt 0.9741 0.1225
vt 0.9741 0.1592
vt 0.7072 0.1225
vt 0.9741 0.0858
vt 0.7072 0.0858
vt 0.9741 0.0492
vt 0.7072 0.0125
vt 0.9741 0.0125
vt 0.6233 0.2804
vt 0.5566 0.3189
vt 0.5566 0.2419
vt 0.7072 0.2325
vt 0.9741 0.1959
vt 0.9741 0.2325
vt 0.7072 0.1959
vt 0.6034 0.3211
vt 0.5318 0.2798
vt 0.6273 0.2798
vt 0.0047 0.0628
vt 0.4907 0.3979
vt 0.0047 0.3979
vt 0.0005 0.2363
vt 0.4670 0.4711
vt 0.0005 0.4711
vt 0.4334 0.2569
vt 0.0514 0.2963
vt 0.0514 0.2569
vt 0.4966 0.3215
vt 0.0081 0.0756
vt 0.4966 0.0756
vt 0.2662 0.7014
vt 0.4400 0.6321
vt 0.4400 0.7014
vt 0.2767 0.9498
vt 0.6832 0.5573
vt 0.4143 0.9498
vt 0.2172 0.8665
vt 0.6863 0.5879
vt 0.4718 0.8665
vt 0.2773 0.9314
vt 0.6805 0.5419
vt 0.4137 0.9314
vt 0.2205 0.8820
vt 0.6864 0.6053
vt 0.4734 0.8820
vt 0.2994 0.2384
vt 0.4253 0.2117
vt 0.4253 0.2384
vt 0.2049 0.2504
vt 0.0058 0.3851
vt 0.0955 0.2504
vt 0.0058 0.0496
vt 0.0955 0.0499
vt 0.3989 0.2501
vt 0.4937 0.0493
vt 0.4924 0.3851
vt 0.2995 0.1372
vt 0.2057 0.0482
vt 0.3002 0.2486
vt 0.3997 0.1374
vt 0.7492 0.9268
vt 0.9403 0.7491
vt 0.9441 0.9266
vt 0.4282 0.2119
vt 0.3010 0.2360
vt 0.3010 0.2119
vt 0.4249 0.2102
vt 0.2997 0.2341
vt 0.2997 0.2102
vt 0.4243 0.2128
vt 0.2973 0.2398
vt 0.2973 0.2128
vt 0.9658 0.6779
vt 0.7277 0.2415
vt 0.9658 0.2415
vt 0.1439 0.2948
vt 0.3336 0.2589
vt 0.3336 0.2948
vt 0.4327 0.2557
vt 0.0521 0.2950
vt 0.0521 0.2557
vt 0.4907 0.0628
vt 0.4670 0.2363
vt 0.4334 0.2963
vt 0.0081 0.3215
vt 0.2662 0.6321
vt 0.0078 0.5573
vt 0.0027 0.5879
vt 0.0105 0.5419
vt 0.0075 0.6053
vt 0.2994 0.2117
vt 0.7512 0.7452
vt 0.4282 0.2360
vt 0.4249 0.2341
vt 0.4243 0.2398
vt 0.7277 0.6779
vt 0.1439 0.2589
vt 0.4327 0.2950
vt 0.9297 0.1249
vt 0.8510 0.1718
vt 0.8485 0.1249
vt 0.9317 0.1637
vt 0.8588 0.2173
vt 0.8334 0.0303
vt 0.9048 0.0838
vt 0.8251 0.0756
vt 0.9029 0.1223
vt 0.8222 0.1223
vt 0.9049 0.1609
vt 0.8246 0.1690
vt 0.9106 0.1994
vt 0.8324 0.2143
vt 0.5394 0.3786
vt 0.5745 0.3435
vt 0.6591 0.3786
vt 0.9374 0.0481
vt 0.8515 0.0780
vt 0.8599 0.0325
vt 0.9316 0.0862
vt 0.7804 0.0689
vt 0.7769 0.1252
vt 0.7917 0.0129
vt 0.7546 0.1783
vt 0.7656 0.2328
vt 0.7509 0.1226
vt 0.7543 0.0665
vt 0.7656 0.0108
vt 0.7807 0.1812
vt 0.7917 0.2359
vt 0.7072 0.0858
vt 0.7072 0.0125
vt 0.6011 0.2419
vt 0.6011 0.3189
vt 0.5344 0.2804
vt 0.7072 0.2325
vt 0.6273 0.2798
vt 0.5557 0.3211
vt 0.5318 0.2798
vt 0.7072 0.1225
vt 0.7072 0.0125
vt 0.6011 0.2419
vt 0.6011 0.3189
vt 0.5344 0.2804
vt 0.6273 0.2798
vt 0.5557 0.3211
vt 0.5318 0.2798
vt 0.7072 0.0492
vt 0.6011 0.2419
vt 0.6233 0.2804
vt 0.5344 0.2804
vt 0.7072 0.1959
vt 0.6273 0.2798
vt 0.5557 0.3211
vt 0.5318 0.2798
vt 0.7072 0.0492
vt 0.6011 0.2419
vt 0.6233 0.2804
vt 0.5344 0.2804
vt 0.7072 0.2325
vt 0.6273 0.2798
vt 0.6034 0.3211
vt 0.5557 0.2385
vt 0.7072 0.0858
vt 0.7072 0.0125
vt 0.6011 0.2419
vt 0.6233 0.2804
vt 0.5344 0.2804
vt 0.6034 0.2385
vt 0.5557 0.3211
vt 0.5557 0.2385
vt 0.7072 0.1225
vt 0.7072 0.0125
vt 0.6011 0.2419
vt 0.6233 0.2804
vt 0.5344 0.2804
vt 0.7072 0.1959
vt 0.6273 0.2798
vt 0.5557 0.3211
vt 0.5318 0.2798
vt 0.7072 0.0858
vt 0.7072 0.0125
vt 0.6011 0.2419
vt 0.6011 0.3189
vt 0.5566 0.3189
vt 0.7072 0.2325
vt 0.6273 0.2798
vt 0.5557 0.3211
vt 0.5318 0.2798
vt 0.7072 0.0492
vt 0.6011 0.2419
vt 0.6011 0.3189
vt 0.5344 0.2804
vt 0.6034 0.2385
vt 0.5557 0.3211
vt 0.5557 0.2385
vt 0.9374 0.2024
vt 0.9106 0.0459
vt 0.6591 0.4282
vt 0.6241 0.4633
vt 0.5745 0.4633
vt 0.5394 0.4282
vt 0.6241 0.3435
vn -0.0000 0.8837 -0.4680
vn -0.0000 0.0366 -0.9993
vn 0.0000 -0.8472 -0.5313
vn 0.0000 -0.8837 0.4680
vn 1.0000 0.0000 0.0000
vn -0.0000 -0.0366 0.9993
vn -0.0000 0.8472 0.5313
vn -1.0000 -0.0000 -0.0000
vn 0.0000 0.3826 -0.9239
vn -0.0000 -0.6088 -0.7933
vn 0.0000 -0.9914 0.1306
vn 0.0000 -0.3826 0.9239
vn -0.0000 0.6088 0.7933
vn -0.0000 0.9914 -0.1306
vn -0.0000 -0.9704 -0.2413
vn 0.0000 -0.6942 0.7198
vn 0.0000 0.2762 0.9611
vn 0.0000 0.9704 0.2413
vn -0.0000 0.6942 -0.7198
vn 0.0000 -0.2762 -0.9611
vn -0.0000 -0.5000 -0.8660
vn 0.0000 -1.0000 0.0000
vn 0.0000 -0.5000 0.8660
vn 0.0000 0.5000 0.8660
vn -0.0000 1.0000 0.0000
vn -0.0000 0.5000 -0.8660
vn -0.0000 0.0000 -1.0000
vn 0.0000 -0.0000 1.0000
vn -0.6734 0.7393 0.0000
vn -0.0000 0.7132 -0.7010
vn 0.6734 0.7393 0.0000
vn 0.0000 0.7132 0.7010
vn 0.0000 -1.0000 -0.0041
vn 0.0000 1.0000 -0.0010
vn 0.3808 0.0999 -0.9193
vn 0.9193 0.0999 -0.3808
vn 0.9193 0.0999 0.3808
vn 0.3808 0.0999 0.9193
vn -0.3808 0.0999 0.9193
vn -0.9193 0.0999 0.3808
vn -0.9193 0.0999 -0.3808
vn -0.3808 0.0999 -0.9193
vn -0.3756 0.1914 -0.9068
vn -0.9068 0.1914 -0.3756
vn -0.9068 0.1914 0.3756
vn -0.3756 0.1914 0.9068
vn 0.3756 0.1914 0.9068
vn 0.9068 0.1914 0.3756
vn 0.9068 0.1914 -0.3756
vn 0.3756 0.1914 -0.9068
vn 0.0004 -1.0000 -0.0000
vn 0.0000 -1.0000 -0.0031
vn 0.0000 -1.0000 0.0010
s off
f 2/1/1 3/2/1 1/3/1
f 4/4/2 5/5/2 3/2/2
f 5/5/3 8/6/3 7/7/3
f 8/6/4 9/8/4 7/7/4
f 2/9/5 10/10/5 6/11/5
f 9/12/6 12/13/6 11/14/6
f 12/13/7 1/3/7 11/14/7
f 3/15/8 9/16/8 11/17/8
f 14/18/1 15/19/1 13/20/1
f 15/19/2 18/21/2 17/22/2
f 18/21/3 19/23/3 17/22/3
f 20/24/4 21/25/4 19/23/4
f 14/26/5 22/27/5 18/28/5
f 22/29/6 23/30/6 21/31/6
f 24/32/7 13/20/7 23/30/7
f 15/33/8 21/34/8 23/35/8
f 26/36/9 27/37/9 25/38/9
f 28/39/10 29/40/10 27/37/10
f 30/41/11 31/42/11 29/40/11
f 31/42/12 34/43/12 33/44/12
f 36/45/5 34/46/5 30/47/5
f 34/48/13 35/49/13 33/50/13
f 35/49/14 26/36/14 25/38/14
f 27/51/8 33/52/8 35/53/8
f 38/54/9 39/55/9 37/56/9
f 40/57/10 41/58/10 39/55/10
f 42/59/11 43/60/11 41/58/11
f 43/60/12 46/61/12 45/62/12
f 48/63/5 46/64/5 42/65/5
f 45/66/13 48/67/13 47/68/13
f 47/68/14 38/54/14 37/56/14
f 41/69/8 43/70/8 47/71/8
f 50/72/15 51/73/15 49/74/15
f 52/75/16 53/76/16 51/73/16
f 53/76/17 56/77/17 55/78/17
f 56/77/18 57/79/18 55/78/18
f 60/80/5 58/81/5 54/82/5
f 58/83/19 59/84/19 57/85/19
f 60/86/20 49/74/20 59/84/20
f 51/87/8 55/88/8 49/89/8
f 62/90/15 63/91/15 61/92/15
f 63/91/16 66/93/16 65/94/16
f 66/93/17 67/95/17 65/94/17
f 68/96/18 69/97/18 67/95/18
f 72/98/5 70/99/5 66/100/5
f 70/101/19 71/102/19 69/103/19
f 71/102/20 62/90/20 61/92/20
f 63/104/8 69/105/8 71/106/8
f 74/107/21 75/108/21 73/109/21
f 76/110/22 77/111/22 75/108/22
f 77/111/23 80/112/23 79/113/23
f 80/112/24 81/114/24 79/113/24
f 74/115/5 80/116/5 78/117/5
f 81/118/25 84/119/25 83/120/25
f 83/120/26 74/107/26 73/109/26
f 75/121/8 81/122/8 83/123/8
f 86/124/21 87/125/21 85/126/21
f 88/127/22 89/128/22 87/125/22
f 90/129/23 91/130/23 89/128/23
f 91/130/24 94/131/24 93/132/24
f 86/133/5 94/134/5 90/135/5
f 94/136/25 95/137/25 93/138/25
f 96/139/26 85/126/26 95/137/26
f 87/140/8 91/141/8 85/142/8
f 97/143/8 98/144/8 99/145/8
f 100/146/27 101/147/27 98/148/27
f 102/149/27 103/150/27 104/151/27
f 105/152/28 99/153/28 106/154/28
f 107/155/25 108/156/25 109/157/25
f 107/158/29 97/159/29 110/160/29
f 109/161/30 100/162/30 107/163/30
f 108/164/31 111/165/31 109/166/31
f 110/167/32 105/168/32 108/169/32
f 112/170/33 113/171/33 114/172/33
f 115/173/5 105/174/5 104/175/5
f 104/175/5 106/176/5 102/177/5
f 114/178/5 101/179/5 111/180/5
f 116/181/5 115/173/5 117/182/5
f 112/183/5 111/180/5 115/173/5
f 118/184/5 117/182/5 101/179/5
f 119/185/5 120/186/5 113/187/5
f 114/188/28 120/189/28 118/190/28
f 116/191/27 119/192/27 112/193/27
f 118/194/34 121/195/34 116/196/34
f 122/197/5 123/198/5 124/199/5
f 104/200/22 122/201/22 115/202/22
f 115/203/28 124/204/28 117/205/28
f 97/143/8 100/206/8 98/144/8
f 100/146/27 111/207/27 101/147/27
f 102/149/27 123/208/27 103/150/27
f 105/152/28 97/209/28 99/153/28
f 107/155/25 110/210/25 108/156/25
f 107/158/29 100/211/29 97/159/29
f 109/161/30 111/212/30 100/162/30
f 108/164/31 105/213/31 111/165/31
f 110/167/32 97/214/32 105/168/32
f 112/170/33 119/215/33 113/171/33
f 115/173/5 111/180/5 105/174/5
f 104/175/5 105/174/5 106/176/5
f 114/178/5 118/184/5 101/179/5
f 116/181/5 112/183/5 115/173/5
f 112/183/5 114/178/5 111/180/5
f 118/184/5 116/181/5 117/182/5
f 119/185/5 121/216/5 120/186/5
f 114/188/28 113/217/28 120/189/28
f 116/191/27 121/218/27 119/192/27
f 118/194/34 120/219/34 121/195/34
f 122/197/5 103/220/5 123/198/5
f 104/200/22 103/221/22 122/201/22
f 115/203/28 122/222/28 124/204/28
f 126/223/35 142/224/35 141/225/35
f 128/226/36 143/227/36 142/224/36
f 143/228/37 132/229/37 144/230/37
f 144/230/38 134/231/38 145/232/38
f 145/232/39 136/233/39 146/234/39
f 146/234/40 138/235/40 147/236/40
f 136/237/25 134/238/25 130/239/25
f 138/240/41 148/241/41 147/242/41
f 140/243/42 141/225/42 148/241/42
f 139/244/43 141/225/43 125/245/43
f 147/242/44 139/244/44 137/246/44
f 135/247/45 147/236/45 137/248/45
f 145/232/46 135/247/46 133/249/46
f 131/250/47 145/232/47 133/249/47
f 143/228/48 131/250/48 129/251/48
f 127/252/49 143/227/49 129/253/49
f 141/225/50 127/252/50 125/245/50
f 124/199/51 99/153/51 98/144/51
f 131/250/22 135/247/22 139/244/22
f 2/1/1 4/4/1 3/2/1
f 4/4/2 6/254/2 5/5/2
f 5/5/3 6/254/3 8/6/3
f 8/6/4 10/255/4 9/8/4
f 6/11/5 4/256/5 2/9/5
f 2/9/5 12/257/5 10/10/5
f 10/10/5 8/258/5 6/11/5
f 9/12/6 10/259/6 12/13/6
f 12/13/7 2/1/7 1/3/7
f 11/17/8 1/260/8 3/15/8
f 3/15/8 5/261/8 7/262/8
f 7/262/8 9/16/8 3/15/8
f 14/18/1 16/263/1 15/19/1
f 15/19/2 16/263/2 18/21/2
f 18/21/3 20/24/3 19/23/3
f 20/24/4 22/264/4 21/25/4
f 18/28/5 16/265/5 14/26/5
f 14/26/5 24/266/5 22/27/5
f 22/27/5 20/267/5 18/28/5
f 22/29/6 24/32/6 23/30/6
f 24/32/7 14/18/7 13/20/7
f 23/35/8 13/268/8 15/33/8
f 15/33/8 17/269/8 19/270/8
f 19/270/8 21/34/8 15/33/8
f 26/36/9 28/39/9 27/37/9
f 28/39/10 30/41/10 29/40/10
f 30/41/11 32/271/11 31/42/11
f 31/42/12 32/271/12 34/43/12
f 30/47/5 28/272/5 26/273/5
f 26/273/5 36/45/5 30/47/5
f 34/46/5 32/274/5 30/47/5
f 34/48/13 36/275/13 35/49/13
f 35/49/14 36/275/14 26/36/14
f 35/53/8 25/276/8 27/51/8
f 27/51/8 29/277/8 31/278/8
f 31/278/8 33/52/8 27/51/8
f 38/54/9 40/57/9 39/55/9
f 40/57/10 42/59/10 41/58/10
f 42/59/11 44/279/11 43/60/11
f 43/60/12 44/279/12 46/61/12
f 42/65/5 40/280/5 38/281/5
f 38/281/5 48/63/5 42/65/5
f 46/64/5 44/282/5 42/65/5
f 45/66/13 46/283/13 48/67/13
f 47/68/14 48/67/14 38/54/14
f 47/71/8 37/284/8 39/285/8
f 39/285/8 41/69/8 47/71/8
f 43/70/8 45/286/8 47/71/8
f 50/72/15 52/75/15 51/73/15
f 52/75/16 54/287/16 53/76/16
f 53/76/17 54/287/17 56/77/17
f 56/77/18 58/288/18 57/79/18
f 54/82/5 52/289/5 50/290/5
f 50/290/5 60/80/5 54/82/5
f 58/81/5 56/291/5 54/82/5
f 58/83/19 60/86/19 59/84/19
f 60/86/20 50/72/20 49/74/20
f 59/292/8 49/89/8 55/88/8
f 51/87/8 53/293/8 55/88/8
f 55/88/8 57/294/8 59/292/8
f 62/90/15 64/295/15 63/91/15
f 63/91/16 64/295/16 66/93/16
f 66/93/17 68/96/17 67/95/17
f 68/96/18 70/296/18 69/97/18
f 66/100/5 64/297/5 62/298/5
f 62/298/5 72/98/5 66/100/5
f 70/99/5 68/299/5 66/100/5
f 70/101/19 72/300/19 71/102/19
f 71/102/20 72/300/20 62/90/20
f 71/106/8 61/301/8 63/104/8
f 63/104/8 65/302/8 67/303/8
f 67/303/8 69/105/8 63/104/8
f 74/107/21 76/110/21 75/108/21
f 76/110/22 78/304/22 77/111/22
f 77/111/23 78/304/23 80/112/23
f 80/112/24 82/305/24 81/114/24
f 78/117/5 76/306/5 74/115/5
f 74/115/5 84/307/5 82/308/5
f 82/308/5 80/116/5 74/115/5
f 81/118/25 82/309/25 84/119/25
f 83/120/26 84/119/26 74/107/26
f 83/123/8 73/310/8 75/121/8
f 75/121/8 77/311/8 79/312/8
f 79/312/8 81/122/8 75/121/8
f 86/124/21 88/127/21 87/125/21
f 88/127/22 90/129/22 89/128/22
f 90/129/23 92/313/23 91/130/23
f 91/130/24 92/313/24 94/131/24
f 90/135/5 88/314/5 86/133/5
f 86/133/5 96/315/5 94/134/5
f 94/134/5 92/316/5 90/135/5
f 94/136/25 96/139/25 95/137/25
f 96/139/26 86/124/26 85/126/26
f 95/317/8 85/142/8 91/141/8
f 87/140/8 89/318/8 91/141/8
f 91/141/8 93/319/8 95/317/8
f 126/223/35 128/226/35 142/224/35
f 128/226/36 130/320/36 143/227/36
f 143/228/37 130/321/37 132/229/37
f 144/230/38 132/229/38 134/231/38
f 145/232/39 134/231/39 136/233/39
f 146/234/40 136/233/40 138/235/40
f 130/239/25 128/322/25 126/323/25
f 126/323/25 140/324/25 136/237/25
f 138/325/25 136/237/25 140/324/25
f 134/238/25 132/326/25 130/239/25
f 130/239/25 126/323/25 136/237/25
f 138/240/41 140/243/41 148/241/41
f 140/243/42 126/223/42 141/225/42
f 139/244/43 148/241/43 141/225/43
f 147/242/44 148/241/44 139/244/44
f 135/247/45 146/234/45 147/236/45
f 145/232/46 146/234/46 135/247/46
f 131/250/47 144/230/47 145/232/47
f 143/228/48 144/230/48 131/250/48
f 127/252/49 142/224/49 143/227/49
f 141/225/50 142/224/50 127/252/50
f 123/198/52 102/149/52 106/176/52
f 106/176/52 99/153/52 123/198/52
f 98/144/53 101/147/53 124/199/53
f 101/147/53 117/182/53 124/199/53
f 123/198/51 99/153/51 124/199/51
f 139/244/22 125/245/22 127/252/22
f 127/252/22 129/251/22 131/250/22
f 131/250/22 133/249/22 135/247/22
f 135/247/22 137/246/22 139/244/22
f 139/244/22 127/252/22 131/250/22
